<svg width="1448.727661" height="294.000000" viewBox="0 0 1448.73 294" fill="none" xmlns="http://www.w3.org/2000/svg" xmlns:xlink="http://www.w3.org/1999/xlink">
	<desc>
			Created with Pixso.
	</desc>
	<defs/>
	<path id="Vector" d="M792.14 0L674.73 0L589.98 0L589.98 120.28L674.73 120.28L674.73 294L792.14 294L792.14 120.28L876.92 120.28L876.92 0L792.14 0Z" fill="#FFFFFF" fill-opacity="1.000000" fill-rule="nonzero"/>
	<path id="Vector" d="M1340.16 0L1301.41 102.78L1299.65 102.78L1299.65 0L1182.24 0L1182.24 294L1299.65 294L1299.65 212.47L1331.35 294L1448.73 294L1381.19 120.28L1404 120.28L1448.73 0L1340.16 0Z" fill="#FFFFFF" fill-opacity="1.000000" fill-rule="nonzero"/>
	<path id="Vector" d="M456.55 0L417.81 102.78L416.04 102.78L416.04 0L298.64 0L298.64 294L416.04 294L416.04 212.47L447.75 294L565.16 294L497.59 120.28L520.39 120.28L565.16 0L456.55 0Z" fill="#FFFFFF" fill-opacity="1.000000" fill-rule="nonzero"/>
	<path id="Vector" d="M1037.52 0L904.24 0L904.24 88.4L1037.52 88.4L1037.52 102.28L923.39 102.28L923.39 191.68L1004.54 191.68L1037.52 103.01L1037.52 205.59L904.24 205.59L904.24 294L1037.52 294L1122.31 294L1154.93 294L1154.93 0L1037.52 0Z" fill="#FFFFFF" fill-opacity="1.000000" fill-rule="nonzero"/>
	<path id="Vector" d="M147.18 191.75L176.92 111.76L176.92 191.75L147.18 191.75ZM236.64 0L0 0L0 13.87L102.84 13.87L0 294L109.16 294L142.01 205.66L176.92 205.66L176.92 294L271.26 294L271.26 0L236.61 0L236.64 0Z" fill="#FFFFFF" fill-opacity="1.000000" fill-rule="nonzero"/>
</svg>
