<svg width="8.891846" height="9.112305" viewBox="0 0 8.89185 9.1123" fill="none" xmlns="http://www.w3.org/2000/svg" xmlns:xlink="http://www.w3.org/1999/xlink">
	<desc>
			Created with Pixso.
	</desc>
	<defs/>
	<path id="Vector 1" d="M0.52 5.03L0.5 5.05C0.21 5.05 0 4.83 0 4.55C0 4.27 0.21 4.05 0.5 4.05L0.52 4.07L0.52 5.03ZM4.16 0.84L4.13 0.84C3.94 0.64 3.95 0.33 4.15 0.14C4.35 -0.06 4.66 -0.05 4.86 0.15L4.86 0.18L4.16 0.84ZM4.86 8.92L4.86 8.95C4.66 9.15 4.35 9.16 4.15 8.97C3.95 8.77 3.94 8.46 4.13 8.26L4.16 8.26L4.86 8.92Z" fill="#CFD0D2" fill-opacity="0.250000" fill-rule="nonzero"/>
	<path id="Vector 1" d="M0.5 4.55L8.39 4.55M4.5 8.61L8.39 4.55L4.5 0.5" stroke="#FFFFFF" stroke-opacity="1.000000" stroke-width="1.000000" stroke-linejoin="round" stroke-linecap="round"/>
</svg>
