<svg width="26.002014" height="26.000977" viewBox="0 0 26.002 26.001" fill="none" xmlns="http://www.w3.org/2000/svg" xmlns:xlink="http://www.w3.org/1999/xlink">
	<desc>
			Created with Pixso.
	</desc>
	<defs/>
	<path id="Vector" d="M11.17 0L14.82 0L14.82 5.32L11.17 5.32L11.17 0Z" fill="#F7A711" fill-opacity="1.000000" fill-rule="evenodd"/>
	<path id="Vector" d="M13.36 10.03L20.88 2.51L23.46 5.09L15.93 12.61L13.36 10.03Z" fill="#F7A711" fill-opacity="1.000000" fill-rule="evenodd"/>
	<path id="Vector" d="M2.51 20.89L10.04 13.37L12.62 15.95L5.09 23.47L2.51 20.89Z" fill="#F7A711" fill-opacity="1.000000" fill-rule="evenodd"/>
	<path id="Vector" d="M13.36 15.94L15.93 13.36L23.46 20.88L20.88 23.46L13.36 15.94Z" fill="#F7A711" fill-opacity="1.000000" fill-rule="evenodd"/>
	<path id="Vector" d="M2.51 5.1L5.09 2.52L12.62 10.04L10.04 12.62L2.51 5.1Z" fill="#F7A711" fill-opacity="1.000000" fill-rule="evenodd"/>
	<path id="Vector" d="M11.17 20.67L14.82 20.67L14.82 26L11.17 26L11.17 20.67Z" fill="#F7A711" fill-opacity="1.000000" fill-rule="evenodd"/>
	<path id="Vector" d="M20.67 11.17L26 11.17L26 14.82L20.67 14.82L20.67 11.17Z" fill="#F7A711" fill-opacity="1.000000" fill-rule="evenodd"/>
	<path id="Vector" d="M0 11.17L5.31 11.17L5.31 14.82L0 14.82L0 11.17Z" fill="#F7A711" fill-opacity="1.000000" fill-rule="evenodd"/>
</svg>
