<svg width="36" height="37" viewBox="0 0 36 37" fill="none" xmlns="http://www.w3.org/2000/svg">
<path d="M11.1862 36.0418C12.8009 36.0418 14.1099 34.7328 14.1099 33.1181C14.1099 31.5033 12.8009 30.1943 11.1862 30.1943C9.57145 30.1943 8.26245 31.5033 8.26245 33.1181C8.26245 34.7328 9.57145 36.0418 11.1862 36.0418Z" fill="black"/>
<path d="M25.805 36.0418C27.4197 36.0418 28.7287 34.7328 28.7287 33.1181C28.7287 31.5033 27.4197 30.1943 25.805 30.1943C24.1902 30.1943 22.8812 31.5033 22.8812 33.1181C22.8812 34.7328 24.1902 36.0418 25.805 36.0418Z" fill="black"/>
<path d="M9.21863 8.26636L8.83416 5.25199C8.69456 4.0689 8.12571 2.97814 7.23547 2.18651C6.34522 1.39489 5.19547 0.957414 4.00416 0.957031L0.953247 0.957031V5.34263H4.00416C4.12375 5.34391 4.23863 5.38943 4.32663 5.47042C4.41464 5.55141 4.46953 5.66212 4.48073 5.78119L6.67353 22.9713C6.81183 24.1553 7.38015 25.2473 8.27057 26.0399C9.16098 26.8324 10.3115 27.2704 11.5035 27.2706H30.7753L36 8.26636H9.21863ZM27.4306 22.885H11.5035C11.384 22.884 11.2691 22.8386 11.1813 22.7575C11.0935 22.6764 11.039 22.5655 11.0284 22.4465L9.77853 12.652H30.2446L27.4306 22.885Z" fill="black"/>
</svg>
