<svg width="36" height="36" viewBox="0 0 36 36" fill="none" xmlns="http://www.w3.org/2000/svg">
<path d="M10.2329 35.0848C11.8477 35.0848 13.1567 33.7758 13.1567 32.161C13.1567 30.5463 11.8477 29.2373 10.2329 29.2373C8.6182 29.2373 7.3092 30.5463 7.3092 32.161C7.3092 33.7758 8.6182 35.0848 10.2329 35.0848Z" fill="#F7A711"/>
<path d="M24.8517 35.0848C26.4664 35.0848 27.7754 33.7758 27.7754 32.161C27.7754 30.5463 26.4664 29.2373 24.8517 29.2373C23.237 29.2373 21.928 30.5463 21.928 32.161C21.928 33.7758 23.237 35.0848 24.8517 35.0848Z" fill="#F7A711"/>
<path d="M8.26539 7.30933L7.88092 4.29496C7.74131 3.11186 7.17247 2.02111 6.28222 1.22948C5.39198 0.437856 4.24222 0.000382828 3.05091 0L0 0V4.3856H3.05091C3.1705 4.38688 3.28538 4.4324 3.37339 4.51339C3.46139 4.59438 3.51629 4.70508 3.52748 4.82416L5.72028 22.0142C5.85858 23.1983 6.42691 24.2902 7.31732 25.0828C8.20773 25.8754 9.35822 26.3134 10.5503 26.3136H29.8221L35.0468 7.30933H8.26539ZM26.4773 21.928H10.5503C10.4308 21.927 10.3159 21.8815 10.228 21.8005C10.1402 21.7194 10.0857 21.6085 10.0752 21.4894L8.82528 11.6949H29.2914L26.4773 21.928Z" fill="#F7A711"/>
</svg>
