<svg width="34.000000" height="34.000000" viewBox="0 0 34 34" fill="none" xmlns="http://www.w3.org/2000/svg" xmlns:xlink="http://www.w3.org/1999/xlink">
	<desc>
			Created with Pixso.
	</desc>
	<defs/>
	<path id="Vector" d="M16.93 34L17.06 34C23.82 34 27.73 33.32 30.51 30.62C33.34 27.76 34 23.82 34 17.09L34 16.9C34 10.18 33.34 6.26 30.51 3.37C27.74 0.67 23.79 0 17.06 0L16.93 0C10.18 0 6.26 0.67 3.48 3.37C0.65 6.23 0 10.18 0 16.9L0 17.09C0 23.81 0.65 27.73 3.48 30.62C6.23 33.32 10.18 34 16.93 34Z" fill="#000000" fill-opacity="1.000000" fill-rule="nonzero"/>
	<path id="Vector" d="M29.75 16.74C29.75 16.62 29.64 16.51 29.51 16.5C24.94 16.33 22.16 15.75 20.21 13.8C18.26 11.85 17.67 9.06 17.5 4.48C17.5 4.35 17.39 4.25 17.26 4.25L16.73 4.25C16.6 4.25 16.5 4.35 16.49 4.48C16.32 9.06 15.73 11.85 13.78 13.8C11.83 15.75 9.05 16.33 4.48 16.5C4.35 16.51 4.25 16.61 4.25 16.74L4.25 17.28C4.25 17.4 4.35 17.51 4.48 17.52C9.05 17.69 11.83 18.27 13.78 20.22C15.73 22.17 16.31 24.95 16.49 29.51C16.49 29.64 16.6 29.75 16.73 29.75L17.26 29.75C17.39 29.75 17.5 29.64 17.5 29.51C17.68 24.95 18.26 22.17 20.21 20.22C22.16 18.27 24.94 17.69 29.51 17.52C29.64 17.51 29.74 17.41 29.74 17.28L29.75 16.74Z" fill="#F7A711" fill-opacity="1.000000" fill-rule="nonzero"/>
</svg>
