<svg width="50" height="50" viewBox="0 0 50 50" fill="none" xmlns="http://www.w3.org/2000/svg">
<rect y="0.00390625" width="50" height="50" fill="#F7A711"/>
<g clip-path="url(#clip0_1003_11691)">
<path d="M39.4565 10.0708C39.3362 10.021 39.2091 9.9998 39.0841 10.005H33.0852C32.8522 10.005 32.6286 10.0975 32.4638 10.2624L28.4227 14.3035L28.3986 10.8777C28.4038 10.4083 27.9893 9.99652 27.5199 10.005L21.4859 10.0039C21.4858 10.0039 21.4858 10.0039 21.4857 10.0039C21.2526 10.0039 21.0291 10.0965 20.8643 10.2614L10.3681 20.7575C10.1455 20.917 10 21.1772 10 21.4718V39.125C10 39.6104 10.3935 40.0039 10.8789 40.0039C10.8789 40.0039 29.0194 40.0038 29.1186 40.0038C29.3446 40.0038 29.5705 39.9171 29.7424 39.7441L39.744 29.6691C39.9074 29.5045 39.9991 29.2819 39.9991 29.05V10.8828C39.9991 10.5273 39.7848 10.2068 39.4565 10.0708ZM33.4493 11.7627H36.9976L28.1686 20.5929H24.6192L33.4493 11.7627ZM16.9316 27.9169C17.1622 27.917 17.3903 27.8225 17.5532 27.6593L21.619 23.5936V26.674L15.2737 33.0194V27.9169H16.9316ZM22.8619 27.9169H24.1384V34.2621H16.5167L22.8619 27.9169ZM21.8762 20.8501C21.8747 20.8516 21.8734 20.8533 21.8718 20.8549L17.8105 24.9162V21.8358L26.6556 12.9907L26.6772 16.049L21.8762 20.8501ZM21.8497 11.7617L25.3982 11.7624L16.5677 20.5929H13.0185L21.8497 11.7617ZM27.6539 38.2462H11.7578V22.3507H16.0528V26.1592H14.3948C13.9094 26.1592 13.5159 26.5527 13.5159 27.038V35.141C13.5077 35.6132 13.9237 36.0293 14.3961 36.0198H25.0173C25.5027 36.0198 25.8962 35.6263 25.8962 35.141V27.038C25.8962 26.5527 25.5027 26.1592 25.0173 26.1592H23.3768V22.3507H27.654L27.6539 38.2462ZM38.2413 28.6878L29.4117 37.5821V21.8356L38.2413 13.0048V28.6878Z" fill="#1C1A17"/>
</g>
<defs>
<clipPath id="clip0_1003_11691">
<rect width="30" height="30" fill="white" transform="translate(10 10.0039)"/>
</clipPath>
</defs>
</svg>
