<svg width="123.000000" height="123.000000" viewBox="0 0 123 123" fill="none" xmlns="http://www.w3.org/2000/svg" xmlns:xlink="http://www.w3.org/1999/xlink">
	<desc>
			Created with Pixso.
	</desc>
	<defs>
		<filter id="filter_627_2129_dd" x="0.000000" y="0.000000" width="123.000000" height="123.000000" filterUnits="userSpaceOnUse" color-interpolation-filters="sRGB">
			<feFlood flood-opacity="0" result="BackgroundImageFix"/>
			<feGaussianBlur in="BackgroundImage" stdDeviation="3.33333"/>
			<feComposite in2="SourceAlpha" operator="in" result="effect_backgroundBlur_1"/>
			<feBlend mode="normal" in="SourceGraphic" in2="effect_backgroundBlur_1" result="shape"/>
		</filter>
		<clipPath id="clip627_2131">
			<rect id="_РЎР»РѕР№_1" rx="0.000000" width="99.202461" height="99.658470" transform="translate(11.837687 11.837199)" fill="white" fill-opacity="0"/>
		</clipPath>
		<linearGradient x1="4.380356" y1="0.000000" x2="118.619705" y2="122.999985" id="paint_linear_627_2129_0" gradientUnits="userSpaceOnUse">
			<stop stop-color="#F7A711" stop-opacity="0.301961"/>
			<stop offset="1.000000" stop-color="#91620A" stop-opacity="0.101961"/>
		</linearGradient>
	</defs>
	<g filter="url(#filter_627_2129_dd)">
		<rect id="Rectangle 240" rx="61.500000" width="123.000000" height="123.000000" fill="url(#paint_linear_627_2129_0)" fill-opacity="1.000000"/>
	</g>
	<rect id="Rectangle 239" x="26.782349" y="26.780273" rx="34.656776" width="69.313553" height="69.313553" fill="#F7A711" fill-opacity="1.000000"/>
	<rect id="_РЎР»РѕР№_1" rx="0.000000" width="99.202461" height="99.658470" transform="translate(11.837687 11.837199)" fill="#FFFFFF" fill-opacity="0"/>
	<g clip-path="url(#clip627_2131)">
		<path id="Vector" d="M51.56 17.79C51.01 17.92 50.5 17.92 50.05 17.79C49.6 17.67 49.2 17.39 48.89 17.01C48.57 16.63 48.34 16.13 48.19 15.55C48.04 14.95 48.04 14.42 48.16 13.94C48.29 13.46 48.52 13.06 48.87 12.76C49.22 12.43 49.65 12.23 50.2 12.1C50.55 12.03 50.91 12 51.28 12.05C51.64 12.1 51.96 12.2 52.24 12.38L52.06 13.11C51.79 12.96 51.51 12.86 51.23 12.81C50.96 12.76 50.68 12.78 50.43 12.83C49.85 12.96 49.45 13.26 49.22 13.69C48.99 14.12 48.97 14.7 49.12 15.37C49.27 16.05 49.57 16.56 49.98 16.86C50.38 17.16 50.88 17.24 51.43 17.11C51.69 17.06 51.91 16.94 52.16 16.79C52.42 16.63 52.62 16.41 52.79 16.13L53.27 16.68C53.09 16.99 52.87 17.21 52.54 17.44C52.21 17.67 51.91 17.79 51.56 17.87L51.56 17.79Z" fill="#FFFFFF" fill-opacity="1.000000" fill-rule="nonzero"/>
		<path id="Vector" d="M54.51 17.01L53.98 11.35L54.76 11.27L57.22 14.9L59.01 10.89L59.79 10.82L60.32 16.48L59.51 16.56L59.08 11.9L59.31 11.9L57.57 15.8L57.12 15.85L54.68 12.3L54.93 12.3L55.36 16.94L54.56 17.01L54.51 17.01Z" fill="#FFFFFF" fill-opacity="1.000000" fill-rule="nonzero"/>
		<path id="Vector" d="M64.19 16.74C63.63 16.71 63.16 16.56 62.78 16.31C62.38 16.06 62.1 15.68 61.9 15.23C61.7 14.77 61.62 14.24 61.65 13.64C61.67 13.03 61.82 12.51 62.08 12.08C62.33 11.65 62.65 11.32 63.06 11.12C63.48 10.89 63.96 10.82 64.49 10.84C65.04 10.87 65.52 11.02 65.9 11.27C66.28 11.52 66.58 11.9 66.78 12.33C66.98 12.78 67.06 13.31 67.03 13.92C67 14.52 66.85 15.05 66.6 15.48C66.35 15.91 66.02 16.23 65.6 16.43C65.17 16.64 64.69 16.74 64.16 16.71L64.19 16.74ZM64.24 15.98C64.77 16.01 65.22 15.85 65.55 15.5C65.87 15.15 66.07 14.62 66.12 13.89C66.17 13.16 66.05 12.61 65.75 12.2C65.45 11.8 65.02 11.6 64.49 11.57C63.96 11.55 63.51 11.7 63.18 12.05C62.85 12.41 62.65 12.96 62.6 13.66C62.55 14.39 62.68 14.92 62.98 15.33C63.28 15.73 63.68 15.93 64.24 15.96L64.24 15.98Z" fill="#FFFFFF" fill-opacity="1.000000" fill-rule="nonzero"/>
		<path id="Vector" d="M69.29 17.21L70.2 12.33L68.16 11.95L68.29 11.22L73.27 12.12L73.14 12.86L71.1 12.48L70.2 17.36L69.29 17.19L69.29 17.21Z" fill="#FFFFFF" fill-opacity="1.000000" fill-rule="nonzero"/>
		<path id="Vector" d="M72.24 20.29L74.33 13.79C74.4 13.59 74.45 13.39 74.5 13.16C74.55 12.93 74.6 12.73 74.65 12.5L75.48 12.78L75.18 14.12L75.06 14.07C75.31 13.69 75.66 13.41 76.09 13.29C76.51 13.16 76.97 13.16 77.47 13.31C77.95 13.46 78.35 13.71 78.63 14.04C78.9 14.37 79.08 14.8 79.16 15.28C79.23 15.75 79.16 16.31 78.98 16.89C78.8 17.47 78.53 17.94 78.2 18.3C77.87 18.65 77.5 18.88 77.04 19C76.61 19.1 76.14 19.08 75.66 18.93C75.18 18.78 74.8 18.52 74.53 18.15C74.25 17.79 74.12 17.39 74.15 16.91L74.28 16.91L73.12 20.56L72.24 20.29ZM75.71 18.15C76.24 18.32 76.69 18.27 77.12 18.02C77.55 17.77 77.85 17.29 78.07 16.61C78.3 15.93 78.3 15.35 78.12 14.9C77.95 14.44 77.57 14.14 77.07 13.97C76.56 13.79 76.09 13.84 75.66 14.12C75.23 14.37 74.93 14.85 74.7 15.55C74.48 16.23 74.48 16.81 74.65 17.26C74.85 17.72 75.21 18.02 75.71 18.2L75.71 18.15Z" fill="#FFFFFF" fill-opacity="1.000000" fill-rule="nonzero"/>
		<path id="Vector" d="M81.49 21.32C80.69 20.94 80.16 20.39 79.93 19.71C79.71 19.03 79.78 18.25 80.18 17.42C80.44 16.89 80.76 16.46 81.17 16.16C81.57 15.85 82 15.68 82.47 15.65C82.95 15.6 83.43 15.7 83.91 15.93C84.38 16.16 84.71 16.46 84.94 16.81C85.16 17.16 85.27 17.57 85.27 18.02C85.27 18.47 85.14 18.95 84.89 19.43L84.74 19.73L80.76 17.79L81.01 17.26L84.44 18.93L84.21 18.98C84.46 18.42 84.56 17.95 84.46 17.52C84.36 17.09 84.08 16.76 83.58 16.54C83.08 16.28 82.57 16.28 82.12 16.48C81.67 16.71 81.29 17.11 80.99 17.72L80.94 17.82C80.64 18.45 80.56 19.03 80.71 19.51C80.86 19.99 81.24 20.36 81.79 20.64C82.1 20.79 82.42 20.89 82.72 20.92C83.03 20.94 83.38 20.92 83.71 20.84L83.71 21.57C83.38 21.67 83 21.72 82.62 21.67C82.22 21.62 81.84 21.52 81.44 21.32L81.49 21.32Z" fill="#FFFFFF" fill-opacity="1.000000" fill-rule="nonzero"/>
		<path id="Vector" d="M85.57 23.48L88.26 19.3L86.52 18.2L86.93 17.57L91.18 20.31L90.77 20.94L89.04 19.81L86.35 23.99L85.57 23.48Z" fill="#FFFFFF" fill-opacity="1.000000" fill-rule="nonzero"/>
		<path id="Vector" d="M88.69 25.57L92.33 21.19L93.04 21.77L91.73 23.33L93.04 24.44C93.59 24.92 93.92 25.4 94.02 25.88C94.09 26.35 93.97 26.81 93.59 27.26C93.34 27.56 93.06 27.77 92.76 27.87C92.46 27.97 92.13 27.97 91.78 27.87C91.43 27.77 91.08 27.56 90.7 27.26L88.69 25.57ZM89.82 25.65L91.08 26.71C91.43 27.01 91.75 27.16 92.08 27.16C92.38 27.16 92.68 27.01 92.94 26.71C93.19 26.41 93.29 26.1 93.21 25.8C93.14 25.5 92.94 25.2 92.58 24.92L91.33 23.86L89.84 25.65L89.82 25.65Z" fill="#FFFFFF" fill-opacity="1.000000" fill-rule="nonzero"/>
		<path id="Vector" d="M95.15 31.54L99.58 27.97L101.31 30.11C101.71 30.61 101.94 31.09 101.94 31.49C101.94 31.89 101.76 32.27 101.39 32.57C101.11 32.8 100.78 32.9 100.43 32.85C100.08 32.8 99.75 32.65 99.48 32.37L99.58 32.3C99.85 32.67 99.98 33.05 99.95 33.43C99.93 33.81 99.75 34.14 99.45 34.39C99.07 34.69 98.65 34.79 98.22 34.69C97.79 34.59 97.34 34.29 96.93 33.76L95.15 31.54ZM96.18 31.82L97.39 33.3C97.64 33.61 97.89 33.81 98.17 33.86C98.44 33.91 98.7 33.86 98.95 33.66C99.2 33.46 99.32 33.23 99.3 32.95C99.27 32.67 99.17 32.4 98.92 32.07L97.71 30.58L96.18 31.82ZM98.19 30.18L99.32 31.59C99.55 31.87 99.8 32.05 100.05 32.1C100.31 32.15 100.56 32.1 100.78 31.89C101.01 31.72 101.14 31.49 101.14 31.21C101.14 30.96 101.01 30.69 100.78 30.38L99.65 28.97L98.19 30.16L98.19 30.18Z" fill="#FFFFFF" fill-opacity="1.000000" fill-rule="nonzero"/>
		<path id="Vector" d="M98.87 36.28L103.75 33.33L104.18 34.06L100.03 36.55L99.88 36.3L105.89 36.91L106.29 37.56L101.41 40.51L100.98 39.8L105.13 37.29L105.29 37.54L99.25 36.93L98.85 36.25L98.87 36.28Z" fill="#FFFFFF" fill-opacity="1.000000" fill-rule="nonzero"/>
		<path id="Vector" d="M100.56 41.89L102.59 41.04L102.82 41.59C103.27 41.69 103.78 41.69 104.33 41.59C104.88 41.49 105.49 41.31 106.17 41.01L107.7 40.36L109.26 44.06L104.68 45.97L105.03 46.8L103 47.66L102.69 46.93L104.05 46.35L102.24 42.02L100.88 42.6L100.58 41.87L100.56 41.89ZM103.15 42.42L104.3 45.22L108.23 43.55L107.32 41.41L106.29 41.84C105.74 42.07 105.18 42.24 104.63 42.34C104.08 42.45 103.57 42.47 103.12 42.42L103.15 42.42Z" fill="#FFFFFF" fill-opacity="1.000000" fill-rule="nonzero"/>
		<path id="Vector" d="M105.11 50.53C104.89 49.68 104.96 48.92 105.34 48.29C105.72 47.66 106.34 47.23 107.22 47.01C107.8 46.86 108.33 46.83 108.81 46.93C109.29 47.03 109.71 47.26 110.04 47.58C110.39 47.91 110.62 48.34 110.75 48.84C110.87 49.35 110.87 49.8 110.75 50.2C110.62 50.61 110.39 50.93 110.04 51.24C109.69 51.51 109.26 51.74 108.73 51.87L108.41 51.94L107.3 47.66L107.85 47.51L108.81 51.19L108.61 51.04C109.19 50.88 109.61 50.63 109.87 50.28C110.12 49.93 110.19 49.5 110.04 48.97C109.89 48.42 109.59 48.04 109.14 47.84C108.68 47.64 108.1 47.61 107.48 47.79L107.38 47.79C106.7 47.99 106.22 48.29 105.94 48.74C105.66 49.17 105.61 49.7 105.79 50.3C105.87 50.63 106.02 50.93 106.19 51.19C106.37 51.44 106.6 51.69 106.9 51.89L106.34 52.37C106.04 52.19 105.79 51.94 105.56 51.59C105.34 51.24 105.16 50.88 105.06 50.48L105.11 50.53Z" fill="#FFFFFF" fill-opacity="1.000000" fill-rule="nonzero"/>
		<path id="Vector" d="M106.19 56.27C106.11 55.72 106.19 55.24 106.37 54.81C106.54 54.38 106.84 54.03 107.27 53.75C107.67 53.48 108.2 53.33 108.78 53.25C109.38 53.17 109.91 53.22 110.39 53.4C110.84 53.58 111.22 53.83 111.5 54.21C111.77 54.58 111.95 55.04 112.03 55.57C112.1 56.12 112.03 56.6 111.85 57.03C111.65 57.46 111.37 57.81 110.94 58.08C110.52 58.36 110.04 58.54 109.41 58.61C108.81 58.69 108.28 58.61 107.8 58.46C107.35 58.29 106.97 58.01 106.67 57.66C106.37 57.3 106.22 56.83 106.14 56.3L106.19 56.27ZM106.94 56.17C107.02 56.7 107.25 57.1 107.65 57.38C108.05 57.66 108.63 57.76 109.33 57.66C110.06 57.58 110.59 57.35 110.92 56.98C111.25 56.62 111.4 56.17 111.32 55.64C111.25 55.11 111.02 54.71 110.62 54.43C110.21 54.16 109.64 54.08 108.93 54.16C108.23 54.23 107.7 54.46 107.37 54.81C107.05 55.16 106.89 55.62 106.97 56.17L106.94 56.17Z" fill="#FFFFFF" fill-opacity="1.000000" fill-rule="nonzero"/>
		<path id="Vector" d="M104.86 73.77C105.01 73.25 105.24 72.79 105.59 72.46C105.94 72.14 106.34 71.91 106.82 71.81C107.3 71.71 107.85 71.74 108.43 71.89C109.03 72.04 109.51 72.29 109.86 72.62C110.22 72.94 110.47 73.35 110.57 73.8C110.67 74.25 110.67 74.76 110.52 75.29C110.42 75.64 110.27 75.97 110.07 76.27C109.86 76.57 109.61 76.8 109.31 76.95L108.76 76.47C109.03 76.32 109.26 76.12 109.41 75.87C109.59 75.64 109.71 75.39 109.76 75.13C109.91 74.56 109.86 74.08 109.59 73.67C109.31 73.27 108.83 72.97 108.15 72.79C107.47 72.62 106.9 72.62 106.44 72.84C105.99 73.04 105.69 73.45 105.54 74.03C105.46 74.28 105.46 74.53 105.49 74.81C105.51 75.08 105.61 75.39 105.76 75.66L105.06 75.81C104.88 75.51 104.78 75.18 104.76 74.83C104.73 74.48 104.76 74.1 104.83 73.77L104.86 73.77Z" fill="#FFFFFF" fill-opacity="1.000000" fill-rule="nonzero"/>
		<path id="Vector" d="M104.13 76.72L109.36 78.96L109.06 79.67L104.71 80.12L107.37 83.6L107.07 84.3L101.84 82.06L102.17 81.3L106.47 83.14L106.37 83.37L103.75 79.97L103.93 79.54L108.23 79.09L108.13 79.31L103.83 77.48L104.15 76.72L104.13 76.72Z" fill="#FFFFFF" fill-opacity="1.000000" fill-rule="nonzero"/>
		<path id="Vector" d="M99.75 85.38C100.05 84.91 100.41 84.58 100.81 84.35C101.24 84.13 101.69 84.05 102.17 84.1C102.67 84.15 103.17 84.33 103.68 84.66C104.2 84.98 104.58 85.36 104.83 85.76C105.08 86.17 105.21 86.62 105.21 87.1C105.21 87.58 105.06 88.03 104.76 88.48C104.46 88.96 104.1 89.29 103.7 89.52C103.27 89.74 102.82 89.82 102.34 89.77C101.86 89.72 101.34 89.54 100.83 89.21C100.33 88.89 99.93 88.53 99.68 88.11C99.42 87.68 99.3 87.22 99.3 86.77C99.3 86.29 99.45 85.84 99.75 85.36L99.75 85.38ZM100.38 85.79C100.1 86.24 100.03 86.72 100.18 87.17C100.33 87.63 100.71 88.05 101.31 88.43C101.92 88.81 102.47 88.96 102.97 88.89C103.45 88.81 103.85 88.53 104.13 88.08C104.41 87.63 104.48 87.15 104.33 86.69C104.18 86.24 103.8 85.81 103.17 85.41C102.57 85.03 102.02 84.88 101.54 84.96C101.06 85.03 100.66 85.28 100.38 85.76L100.38 85.79Z" fill="#FFFFFF" fill-opacity="1.000000" fill-rule="nonzero"/>
		<path id="Vector" d="M96.86 89.67L100.71 92.79L102.02 91.18L102.6 91.63L99.4 95.56L98.82 95.11L100.13 93.5L96.28 90.37L96.86 89.67Z" fill="#FFFFFF" fill-opacity="1.000000" fill-rule="nonzero"/>
		<path id="Vector" d="M92.76 90.77L97.46 95.71C97.61 95.86 97.77 96.01 97.94 96.16C98.12 96.31 98.27 96.47 98.44 96.59L97.82 97.2L96.78 96.31L96.89 96.21C97.11 96.62 97.16 97.04 97.09 97.5C96.99 97.95 96.76 98.33 96.41 98.71C96.03 99.06 95.63 99.29 95.2 99.36C94.77 99.46 94.32 99.41 93.87 99.24C93.41 99.06 92.96 98.76 92.53 98.3C92.11 97.85 91.83 97.4 91.68 96.94C91.53 96.49 91.5 96.04 91.6 95.61C91.7 95.18 91.96 94.78 92.33 94.43C92.71 94.07 93.11 93.87 93.54 93.8C93.99 93.72 94.4 93.8 94.8 94.05L94.7 94.12L92.08 91.38L92.74 90.75L92.76 90.77ZM92.96 94.85C92.56 95.23 92.38 95.66 92.41 96.16C92.43 96.67 92.68 97.17 93.19 97.67C93.69 98.2 94.19 98.48 94.67 98.53C95.17 98.58 95.6 98.43 96 98.05C96.38 97.67 96.58 97.25 96.56 96.77C96.53 96.26 96.26 95.76 95.78 95.23C95.28 94.7 94.8 94.43 94.29 94.37C93.82 94.33 93.36 94.48 92.99 94.85L92.96 94.85Z" fill="#FFFFFF" fill-opacity="1.000000" fill-rule="nonzero"/>
		<path id="Vector" d="M87.48 98.43C88.21 97.9 88.91 97.7 89.64 97.82C90.37 97.95 91 98.38 91.53 99.13C91.88 99.61 92.08 100.12 92.16 100.6C92.23 101.07 92.16 101.55 91.98 101.98C91.78 102.41 91.48 102.79 91.05 103.11C90.62 103.42 90.19 103.59 89.79 103.62C89.36 103.64 88.96 103.54 88.58 103.34C88.21 103.14 87.83 102.79 87.53 102.33L87.33 102.06L90.9 99.49L91.23 99.96L88.13 102.18L88.21 101.95C88.56 102.46 88.94 102.76 89.36 102.86C89.79 102.99 90.22 102.86 90.65 102.56C91.1 102.23 91.35 101.8 91.38 101.3C91.4 100.8 91.23 100.27 90.82 99.71L90.77 99.64C90.37 99.06 89.89 98.73 89.41 98.63C88.91 98.53 88.41 98.68 87.91 99.06C87.63 99.26 87.4 99.49 87.23 99.74C87.05 99.99 86.9 100.29 86.82 100.64L86.19 100.29C86.25 99.94 86.4 99.61 86.65 99.29C86.87 98.96 87.18 98.66 87.5 98.43L87.48 98.43Z" fill="#FFFFFF" fill-opacity="1.000000" fill-rule="nonzero"/>
		<path id="Vector" d="M83.56 101L85.94 105.35L87.76 104.37L88.11 105.03L83.68 107.44L83.33 106.79L85.14 105.78L82.75 101.43L83.56 100.97L83.56 101Z" fill="#FFFFFF" fill-opacity="1.000000" fill-rule="nonzero"/>
		<path id="Vector" d="M80.34 102.71L82.45 108L81.59 108.35L80.84 106.46L79.25 107.09C78.57 107.37 78 107.42 77.54 107.27C77.09 107.12 76.74 106.77 76.54 106.24C76.39 105.89 76.36 105.53 76.41 105.23C76.46 104.9 76.61 104.63 76.86 104.37C77.12 104.12 77.47 103.9 77.92 103.72L80.36 102.74L80.34 102.71ZM79.73 103.67L78.22 104.27C77.8 104.45 77.49 104.68 77.34 104.93C77.19 105.21 77.19 105.51 77.34 105.89C77.49 106.26 77.72 106.49 78 106.57C78.27 106.64 78.65 106.62 79.08 106.44L80.59 105.84L79.73 103.67Z" fill="#FFFFFF" fill-opacity="1.000000" fill-rule="nonzero"/>
		<path id="Vector" d="M71.99 105.58L73.02 111.17L70.33 111.68C69.67 111.8 69.17 111.75 68.79 111.58C68.41 111.37 68.19 111.05 68.11 110.57C68.04 110.22 68.11 109.89 68.31 109.61C68.51 109.33 68.82 109.13 69.19 109.01L69.19 109.13C68.77 109.21 68.36 109.13 68.04 108.93C67.71 108.73 67.51 108.43 67.43 108.02C67.33 107.55 67.43 107.12 67.76 106.79C68.06 106.44 68.54 106.21 69.19 106.11L71.99 105.61L71.99 105.58ZM71.23 106.36L69.34 106.72C68.94 106.79 68.67 106.92 68.49 107.14C68.31 107.35 68.24 107.62 68.31 107.92C68.39 108.23 68.51 108.45 68.77 108.58C69.02 108.71 69.32 108.73 69.72 108.65L71.61 108.3L71.26 106.36L71.23 106.36ZM71.71 108.91L69.92 109.23C69.57 109.31 69.29 109.44 69.12 109.64C68.94 109.84 68.89 110.09 68.94 110.37C68.99 110.67 69.14 110.87 69.37 111C69.6 111.12 69.9 111.15 70.25 111.07L72.04 110.74L71.71 108.91Z" fill="#FFFFFF" fill-opacity="1.000000" fill-rule="nonzero"/>
		<path id="Vector" d="M66.07 106.59L66.33 112.28L65.5 112.28L65.29 107.47L65.6 107.47L62.18 112.46L61.4 112.46L61.14 106.79L61.97 106.79L62.2 111.6L61.9 111.6L65.32 106.59L66.1 106.59L66.07 106.59Z" fill="#FFFFFF" fill-opacity="1.000000" fill-rule="nonzero"/>
		<path id="Vector" d="M60.32 105.36L60.09 107.55L59.49 107.5C59.18 107.85 58.93 108.3 58.76 108.81C58.58 109.33 58.45 109.96 58.38 110.69L58.2 112.36L54.23 111.95L54.73 107.02L53.85 106.92L54.08 104.73L54.86 104.8L54.71 106.26L59.39 106.74L59.54 105.28L60.32 105.36ZM58.63 107.39L55.64 107.09L55.21 111.35L57.52 111.58L57.62 110.47C57.67 109.86 57.8 109.31 57.98 108.76C58.15 108.23 58.35 107.75 58.63 107.39Z" fill="#FFFFFF" fill-opacity="1.000000" fill-rule="nonzero"/>
		<path id="Vector" d="M50.55 105.28C51.41 105.48 52.04 105.91 52.42 106.54C52.79 107.17 52.87 107.92 52.64 108.83C52.49 109.41 52.26 109.89 51.94 110.27C51.61 110.64 51.23 110.89 50.76 111.05C50.3 111.2 49.82 111.2 49.3 111.05C48.79 110.92 48.39 110.72 48.09 110.42C47.79 110.11 47.61 109.76 47.51 109.31C47.44 108.88 47.44 108.38 47.59 107.85L47.66 107.52L51.94 108.58L51.81 109.13L48.11 108.23L48.34 108.12C48.19 108.7 48.22 109.21 48.39 109.61C48.57 110.01 48.92 110.27 49.45 110.39C50 110.52 50.48 110.44 50.88 110.11C51.28 109.81 51.56 109.33 51.71 108.68L51.71 108.58C51.91 107.9 51.86 107.32 51.61 106.89C51.36 106.46 50.93 106.16 50.3 106.01C49.98 105.93 49.65 105.91 49.35 105.93C49.05 105.96 48.72 106.06 48.39 106.21L48.24 105.51C48.54 105.33 48.89 105.23 49.3 105.18C49.7 105.13 50.1 105.18 50.53 105.28L50.55 105.28Z" fill="#FFFFFF" fill-opacity="1.000000" fill-rule="nonzero"/>
		<path id="Vector" d="M45.02 103.49C45.53 103.69 45.93 103.97 46.23 104.35C46.53 104.73 46.68 105.15 46.73 105.63C46.78 106.14 46.68 106.67 46.46 107.22C46.23 107.8 45.93 108.23 45.58 108.55C45.2 108.88 44.8 109.08 44.34 109.16C43.89 109.23 43.39 109.16 42.89 108.96C42.38 108.76 41.98 108.45 41.68 108.1C41.4 107.72 41.23 107.3 41.17 106.82C41.12 106.34 41.23 105.81 41.45 105.23C41.68 104.68 41.98 104.22 42.33 103.89C42.68 103.57 43.11 103.37 43.59 103.29C44.04 103.22 44.55 103.29 45.05 103.49L45.02 103.49ZM44.75 104.2C44.24 104 43.79 104.02 43.34 104.25C42.91 104.47 42.56 104.93 42.28 105.61C42 106.29 41.95 106.87 42.13 107.32C42.28 107.8 42.63 108.13 43.11 108.33C43.61 108.53 44.07 108.5 44.52 108.28C44.95 108.05 45.3 107.6 45.58 106.92C45.85 106.24 45.9 105.68 45.73 105.2C45.55 104.73 45.25 104.4 44.72 104.2L44.75 104.2Z" fill="#FFFFFF" fill-opacity="1.000000" fill-rule="nonzero"/>
		<path id="Vector" d="M30.28 93.92C30.69 94.3 30.96 94.73 31.09 95.18C31.22 95.63 31.22 96.11 31.09 96.59C30.94 97.07 30.66 97.52 30.23 97.98C29.81 98.43 29.35 98.73 28.9 98.88C28.45 99.03 27.97 99.06 27.52 98.93C27.07 98.81 26.64 98.55 26.24 98.18C25.98 97.92 25.76 97.65 25.61 97.3C25.46 96.94 25.35 96.64 25.35 96.31L26.03 96.06C26.03 96.36 26.11 96.67 26.24 96.92C26.36 97.17 26.51 97.4 26.69 97.57C27.12 97.98 27.57 98.15 28.07 98.1C28.57 98.05 29.05 97.77 29.53 97.27C30.01 96.77 30.26 96.26 30.31 95.76C30.33 95.26 30.13 94.8 29.71 94.4C29.53 94.22 29.3 94.1 29.05 93.97C28.8 93.85 28.5 93.79 28.17 93.79L28.37 93.09C28.7 93.09 29.05 93.14 29.38 93.29C29.73 93.44 30.01 93.62 30.26 93.87L30.28 93.92Z" fill="#FFFFFF" fill-opacity="1.000000" fill-rule="nonzero"/>
		<path id="Vector" d="M28.04 91.88L23.59 95.41L23.12 94.8L24.8 90.75L20.47 91.43L20 90.83L24.45 87.3L24.95 87.93L21.28 90.83L21.13 90.65L25.38 89.97L25.66 90.35L24.02 94.35L23.87 94.15L27.54 91.25L28.04 91.88Z" fill="#FFFFFF" fill-opacity="1.000000" fill-rule="nonzero"/>
		<path id="Vector" d="M22.54 83.92C22.81 84.4 22.94 84.88 22.94 85.36C22.94 85.84 22.79 86.27 22.51 86.67C22.24 87.07 21.83 87.42 21.31 87.73C20.78 88.03 20.27 88.21 19.77 88.23C19.29 88.26 18.84 88.16 18.41 87.93C18.01 87.7 17.66 87.35 17.41 86.87C17.13 86.39 17 85.91 17 85.44C17 84.96 17.16 84.53 17.43 84.13C17.71 83.72 18.11 83.34 18.64 83.04C19.17 82.74 19.67 82.59 20.17 82.56C20.68 82.54 21.13 82.64 21.53 82.87C21.93 83.09 22.29 83.45 22.54 83.92ZM21.88 84.3C21.61 83.82 21.26 83.55 20.75 83.47C20.27 83.37 19.72 83.52 19.09 83.87C18.46 84.23 18.06 84.65 17.91 85.11C17.76 85.56 17.78 86.04 18.06 86.49C18.34 86.97 18.69 87.25 19.19 87.32C19.67 87.42 20.22 87.27 20.85 86.92C21.48 86.57 21.88 86.17 22.04 85.69C22.21 85.23 22.16 84.75 21.88 84.28L21.88 84.3Z" fill="#FFFFFF" fill-opacity="1.000000" fill-rule="nonzero"/>
		<path id="Vector" d="M20.15 79.37L15.57 81.28L16.35 83.19L15.67 83.47L13.74 78.79L14.41 78.51L15.22 80.42L19.8 78.51L20.15 79.37Z" fill="#FFFFFF" fill-opacity="1.000000" fill-rule="nonzero"/>
		<path id="Vector" d="M21.13 75.24L14.54 77.02C14.34 77.07 14.14 77.15 13.91 77.23C13.71 77.3 13.48 77.38 13.28 77.45L13.05 76.6L14.31 76.12L14.31 76.24C13.88 76.24 13.48 76.09 13.13 75.82C12.78 75.51 12.55 75.13 12.4 74.63C12.27 74.13 12.27 73.67 12.4 73.25C12.53 72.82 12.78 72.44 13.16 72.14C13.53 71.81 14.01 71.58 14.61 71.41C15.22 71.26 15.75 71.21 16.22 71.31C16.7 71.38 17.1 71.58 17.43 71.89C17.76 72.19 17.98 72.59 18.14 73.1C18.26 73.57 18.26 74.05 18.11 74.46C17.96 74.88 17.68 75.21 17.28 75.44L17.28 75.31L20.9 74.33L21.15 75.21L21.13 75.24ZM17.46 73.47C17.31 72.94 17.03 72.57 16.58 72.37C16.12 72.16 15.57 72.14 14.87 72.34C14.16 72.54 13.68 72.82 13.41 73.25C13.13 73.67 13.05 74.13 13.21 74.66C13.36 75.19 13.63 75.54 14.09 75.76C14.54 75.97 15.09 75.99 15.8 75.79C16.5 75.61 16.98 75.31 17.25 74.91C17.53 74.51 17.61 74.03 17.46 73.52L17.46 73.47Z" fill="#FFFFFF" fill-opacity="1.000000" fill-rule="nonzero"/>
		<path id="Vector" d="M16.95 66.9C17.05 67.78 16.9 68.51 16.45 69.09C16 69.67 15.32 70 14.41 70.12C13.81 70.2 13.28 70.12 12.83 69.97C12.35 69.79 11.97 69.52 11.7 69.14C11.39 68.76 11.22 68.31 11.17 67.78C11.09 67.25 11.17 66.82 11.34 66.42C11.52 66.04 11.8 65.74 12.17 65.49C12.55 65.26 13 65.09 13.56 65.04L13.88 64.99L14.44 69.37L13.86 69.44L13.38 65.66L13.56 65.84C12.95 65.92 12.5 66.12 12.2 66.42C11.9 66.72 11.77 67.15 11.85 67.68C11.92 68.23 12.17 68.66 12.6 68.91C13.03 69.19 13.58 69.27 14.26 69.19L14.36 69.19C15.07 69.09 15.57 68.86 15.9 68.46C16.22 68.06 16.35 67.55 16.25 66.92C16.2 66.6 16.12 66.27 15.97 65.99C15.85 65.71 15.64 65.44 15.37 65.21L15.97 64.81C16.25 65.04 16.47 65.31 16.65 65.69C16.83 66.07 16.95 66.45 17 66.87L16.95 66.9Z" fill="#FFFFFF" fill-opacity="1.000000" fill-rule="nonzero"/>
		<path id="Vector" d="M16.55 62.26L11.6 62.34L11.6 64.41L10.89 64.41L10.82 59.34L11.55 59.34L11.57 61.41L16.53 61.33L16.53 62.26L16.55 62.26Z" fill="#FFFFFF" fill-opacity="1.000000" fill-rule="nonzero"/>
		<path id="Vector" d="M16.6 58.51L10.94 57.86L11.04 56.95L13.08 57.18L13.28 55.47C13.36 54.74 13.58 54.21 13.94 53.88C14.29 53.55 14.77 53.4 15.32 53.48C15.7 53.53 16.02 53.65 16.28 53.85C16.53 54.06 16.7 54.33 16.83 54.68C16.95 55.04 16.95 55.44 16.9 55.92L16.6 58.54L16.6 58.51ZM16.05 57.53L16.25 55.92C16.3 55.47 16.25 55.09 16.07 54.84C15.9 54.58 15.62 54.41 15.24 54.38C14.87 54.36 14.54 54.41 14.34 54.63C14.14 54.86 13.99 55.19 13.94 55.67L13.74 57.28L16.05 57.56L16.05 57.53Z" fill="#FFFFFF" fill-opacity="1.000000" fill-rule="nonzero"/>
		<path id="Vector" d="M18.04 49.88L12.63 48.11L13.48 45.49C13.68 44.86 13.96 44.44 14.31 44.21C14.66 43.98 15.07 43.93 15.52 44.08C15.87 44.18 16.12 44.41 16.27 44.74C16.43 45.07 16.48 45.42 16.37 45.8L16.25 45.75C16.4 45.29 16.65 44.99 16.98 44.79C17.31 44.59 17.66 44.56 18.06 44.69C18.54 44.84 18.84 45.14 18.99 45.57C19.14 46 19.12 46.53 18.92 47.16L18.04 49.85L18.04 49.88ZM15.24 48.06L15.8 46.33C15.92 45.97 15.92 45.67 15.82 45.42C15.72 45.17 15.55 45.02 15.27 44.91C14.99 44.81 14.74 44.84 14.51 44.99C14.29 45.14 14.14 45.39 14.01 45.75L13.46 47.48L15.24 48.06ZM17.71 48.87L18.29 47.05C18.41 46.68 18.44 46.35 18.34 46.1C18.24 45.85 18.04 45.67 17.73 45.57C17.43 45.47 17.18 45.49 16.95 45.64C16.73 45.8 16.55 46.07 16.43 46.45L15.85 48.26L17.71 48.87Z" fill="#FFFFFF" fill-opacity="1.000000" fill-rule="nonzero"/>
		<path id="Vector" d="M20 44.13L14.89 41.64L15.27 40.89L19.62 43L19.49 43.28L16.73 37.89L17.05 37.18L22.16 39.68L21.81 40.43L17.46 38.32L17.58 38.04L20.35 43.43L20 44.13Z" fill="#FFFFFF" fill-opacity="1.000000" fill-rule="nonzero"/>
		<path id="Vector" d="M23.79 39.7L21.98 38.47L22.31 37.96C22.13 37.51 21.88 37.11 21.51 36.71C21.13 36.3 20.65 35.9 20.05 35.47L18.66 34.51L20.93 31.21L25.03 34.01L25.53 33.28L27.34 34.51L26.89 35.17L25.68 34.34L23.04 38.22L24.25 39.05L23.79 39.7ZM22.81 37.23L24.52 34.74L21 32.32L19.69 34.24L20.6 34.87C21.1 35.19 21.53 35.57 21.93 36C22.34 36.43 22.61 36.83 22.81 37.23Z" fill="#FFFFFF" fill-opacity="1.000000" fill-rule="nonzero"/>
		<path id="Vector" d="M28.55 31.16C27.95 31.82 27.29 32.17 26.56 32.2C25.83 32.22 25.13 31.95 24.45 31.32C24 30.91 23.7 30.49 23.52 30.01C23.34 29.53 23.29 29.08 23.39 28.6C23.49 28.12 23.72 27.69 24.07 27.31C24.42 26.93 24.8 26.68 25.2 26.56C25.61 26.43 26.01 26.46 26.44 26.56C26.86 26.66 27.29 26.93 27.69 27.31L27.95 27.54L24.98 30.81L24.55 30.44L27.12 27.61L27.12 27.87C26.64 27.46 26.21 27.24 25.78 27.21C25.35 27.19 24.95 27.36 24.6 27.77C24.22 28.19 24.07 28.65 24.15 29.15C24.22 29.65 24.53 30.13 25 30.59L25.08 30.66C25.61 31.14 26.11 31.37 26.64 31.37C27.14 31.37 27.62 31.12 28.05 30.64C28.27 30.38 28.45 30.11 28.57 29.83C28.7 29.55 28.78 29.23 28.78 28.85L29.45 29.05C29.45 29.4 29.4 29.75 29.23 30.13C29.05 30.51 28.85 30.84 28.57 31.16L28.55 31.16Z" fill="#FFFFFF" fill-opacity="1.000000" fill-rule="nonzero"/>
		<path id="Vector" d="M32.8 27.11C32.37 27.46 31.94 27.69 31.47 27.76C31.01 27.84 30.54 27.76 30.08 27.59C29.63 27.41 29.2 27.06 28.83 26.58C28.42 26.1 28.17 25.62 28.07 25.17C27.97 24.72 27.97 24.24 28.15 23.79C28.3 23.33 28.6 22.95 29 22.6C29.43 22.25 29.86 22.02 30.33 21.95C30.81 21.87 31.26 21.95 31.72 22.12C32.17 22.33 32.6 22.65 32.97 23.13C33.35 23.58 33.6 24.06 33.73 24.54C33.83 25.02 33.83 25.5 33.65 25.93C33.5 26.38 33.2 26.76 32.8 27.11ZM32.32 26.53C32.72 26.18 32.95 25.78 32.95 25.27C32.95 24.79 32.72 24.26 32.27 23.71C31.79 23.16 31.34 22.83 30.84 22.75C30.33 22.68 29.91 22.8 29.48 23.16C29.05 23.51 28.85 23.91 28.85 24.41C28.85 24.92 29.08 25.42 29.53 25.98C29.98 26.53 30.46 26.83 30.94 26.93C31.42 27.01 31.87 26.88 32.3 26.53L32.32 26.53Z" fill="#FFFFFF" fill-opacity="1.000000" fill-rule="nonzero"/>
	</g>
</svg>
