<svg width="144.000000" height="32.000000" viewBox="0 0 144 32" fill="none" xmlns="http://www.w3.org/2000/svg" xmlns:xlink="http://www.w3.org/1999/xlink">
	<desc>
			Created with Pixso.
	</desc>
	<defs>
		<clipPath id="clip643_11019">
			<rect id="_Слой_1" rx="0.000000" width="143.000000" height="31.000000" transform="translate(0.500000 0.500000)" fill="white" fill-opacity="0"/>
		</clipPath>
	</defs>
	<rect id="_Слой_1" rx="0.000000" width="143.000000" height="31.000000" transform="translate(0.500000 0.500000)" fill="#FFFFFF" fill-opacity="0"/>
	<g clip-path="url(#clip643_11019)">
		<path id="Vector" d="M136.66 0L138.47 0L138.47 2.69L136.66 2.69L136.66 0Z" fill="#F7A711" fill-opacity="1.000000" fill-rule="evenodd"/>
		<path id="Vector" d="M137.75 5.08L141.47 1.27L142.74 2.58L139.02 6.39L137.75 5.08Z" fill="#F7A711" fill-opacity="1.000000" fill-rule="evenodd"/>
		<path id="Vector" d="M132.38 10.59L136.1 6.77L137.38 8.08L133.66 11.89L132.38 10.59Z" fill="#F7A711" fill-opacity="1.000000" fill-rule="evenodd"/>
		<path id="Vector" d="M137.75 8.07L139.02 6.77L142.74 10.58L141.47 11.89L137.75 8.07Z" fill="#F7A711" fill-opacity="1.000000" fill-rule="evenodd"/>
		<path id="Vector" d="M132.38 2.58L133.66 1.27L137.38 5.09L136.1 6.39L132.38 2.58Z" fill="#F7A711" fill-opacity="1.000000" fill-rule="evenodd"/>
		<path id="Vector" d="M136.66 10.47L138.47 10.47L138.47 13.17L136.66 13.17L136.66 10.47Z" fill="#F7A711" fill-opacity="1.000000" fill-rule="evenodd"/>
		<path id="Vector" d="M141.36 5.66L144 5.66L144 7.51L141.36 7.51L141.36 5.66Z" fill="#F7A711" fill-opacity="1.000000" fill-rule="evenodd"/>
		<path id="Vector" d="M131.14 5.66L133.77 5.66L133.77 7.51L131.14 7.51L131.14 5.66Z" fill="#F7A711" fill-opacity="1.000000" fill-rule="evenodd"/>
		<path id="Vector" d="M70.43 5.85L59.99 5.85L52.46 5.85L52.46 16.55L59.99 16.55L59.99 32L70.43 32L70.43 16.55L77.97 16.55L77.97 5.85L70.43 5.85Z" fill="#F7A711" fill-opacity="1.000000" fill-rule="nonzero"/>
		<path id="Vector" d="M119.16 5.85L115.72 14.99L115.56 14.99L115.56 5.85L105.12 5.85L105.12 32L115.56 32L115.56 24.75L118.38 32L128.82 32L122.81 16.55L124.84 16.55L128.82 5.85L119.16 5.85Z" fill="#F7A711" fill-opacity="1.000000" fill-rule="nonzero"/>
		<path id="Vector" d="M40.59 5.85L37.15 14.99L36.99 14.99L36.99 5.85L26.55 5.85L26.55 32L36.99 32L36.99 24.75L39.81 32L50.25 32L44.24 16.55L46.27 16.55L50.25 5.85L40.59 5.85Z" fill="#F7A711" fill-opacity="1.000000" fill-rule="nonzero"/>
		<path id="Vector" d="M91.85 6L80 6L80 13.86L91.85 13.86L91.85 15.09L81.7 15.09L81.7 23.04L88.91 23.04L91.85 15.16L91.85 24.28L80 24.28L80 32.14L91.85 32.14L99.38 32.14L102.29 32.14L102.29 6L91.85 6Z" fill="#F7A711" fill-opacity="1.000000" fill-rule="nonzero"/>
		<path id="Vector" d="M13.08 22.9L15.73 15.79L15.73 22.9L13.08 22.9ZM21.04 5.85L0 5.85L0 7.09L9.14 7.09L0 32L9.7 32L12.62 24.14L15.73 24.14L15.73 32L24.12 32L24.12 5.85L21.03 5.85L21.04 5.85Z" fill="#F7A711" fill-opacity="1.000000" fill-rule="nonzero"/>
	</g>
</svg>
