<svg width="50.000000" height="50.000000" viewBox="0 0 50 50" fill="none" xmlns="http://www.w3.org/2000/svg" xmlns:xlink="http://www.w3.org/1999/xlink">
	<desc>
			Created with Pixso.
	</desc>
	<defs>
		<clipPath id="clip627_2417">
			<rect id="steel (2) 2" rx="0.000000" width="29.000000" height="29.000000" transform="translate(10.500000 10.500000)" fill="white" fill-opacity="0"/>
		</clipPath>
	</defs>
	<rect id="Rectangle 4846" width="50.000000" height="50.000000" fill="#F7A711" fill-opacity="1.000000"/>
	<rect id="steel (2) 2" rx="0.000000" width="29.000000" height="29.000000" transform="translate(10.500000 10.500000)" fill="#FFFFFF" fill-opacity="0"/>
	<g clip-path="url(#clip627_2417)">
		<path id="Vector" d="M39.45 10.06C39.33 10.01 39.2 9.99 39.08 10L33.08 10C32.85 10 32.62 10.09 32.46 10.25L28.42 14.29L28.39 10.87C28.4 10.4 27.98 9.99 27.51 10L21.48 10C21.48 10 21.48 10 21.48 10C21.25 10 21.02 10.09 20.86 10.25L10.36 20.75C10.14 20.91 10 21.17 10 21.46L10 39.12C10 39.6 10.39 40 10.87 40C10.87 40 29.01 40 29.11 40C29.34 40 29.57 39.91 29.74 39.74L39.74 29.66C39.9 29.5 39.99 29.27 39.99 29.04L39.99 10.87C39.99 10.52 39.78 10.2 39.45 10.06ZM33.44 11.75L36.99 11.75L28.16 20.58L24.61 20.58L33.44 11.75ZM16.93 27.91C17.16 27.91 17.39 27.81 17.55 27.65L21.61 23.58L21.61 26.66L15.27 33.01L15.27 27.91L16.93 27.91ZM22.86 27.91L24.13 27.91L24.13 34.25L16.51 34.25L22.86 27.91ZM21.87 20.84C21.87 20.84 21.87 20.84 21.87 20.85L17.81 24.91L17.81 21.83L26.65 12.98L26.67 16.04L21.87 20.84ZM21.84 11.75L25.39 11.75L16.56 20.58L13.01 20.58L21.84 11.75ZM27.65 38.24L11.75 38.24L11.75 22.34L16.05 22.34L16.05 26.15L14.39 26.15C13.9 26.15 13.51 26.54 13.51 27.03L13.51 35.13C13.5 35.6 13.92 36.02 14.39 36.01L25.01 36.01C25.5 36.01 25.89 35.62 25.89 35.13L25.89 27.03C25.89 26.54 25.5 26.15 25.01 26.15L23.37 26.15L23.37 22.34L27.65 22.34L27.65 38.24ZM38.24 28.68L29.41 37.57L29.41 21.83L38.24 13L38.24 28.68Z" fill="#1C1A17" fill-opacity="1.000000" fill-rule="nonzero"/>
	</g>
</svg>
