<svg width="50.000000" height="50.000000" viewBox="0 0 50 50" fill="none" xmlns="http://www.w3.org/2000/svg" xmlns:xlink="http://www.w3.org/1999/xlink">
	<desc>
			Created with Pixso.
	</desc>
	<defs>
		<clipPath id="clip627_2437">
			<rect id="steel (2) 2" rx="0.000000" width="29.000000" height="29.000000" transform="translate(10.500000 10.500000)" fill="white" fill-opacity="0"/>
		</clipPath>
	</defs>
	<rect id="Rectangle 4846" width="50.000000" height="50.000000" fill="#F7A711" fill-opacity="1.000000"/>
	<rect id="steel (2) 2" rx="0.000000" width="29.000000" height="29.000000" transform="translate(10.500000 10.500000)" fill="#FFFFFF" fill-opacity="0"/>
	<g clip-path="url(#clip627_2437)">
		<path id="Vector" d="M39.7 26.89L37.88 26.05C37.92 25.68 37.93 25.33 37.93 25C37.93 24.66 37.92 24.32 37.88 23.94L39.7 23.1C40.1 22.91 40.3 22.46 40.17 22.03L39.07 18.69C38.93 18.27 38.5 18.01 38.05 18.1L36.09 18.48C35.73 17.88 35.3 17.31 34.83 16.77L35.8 15.03C36.02 14.64 35.91 14.16 35.55 13.89L32.68 11.83C32.32 11.57 31.81 11.62 31.51 11.94L30.14 13.39C29.48 13.12 28.8 12.9 28.11 12.74L27.87 10.77C27.81 10.33 27.43 10 26.99 10L23.43 10C22.99 10 22.61 10.33 22.55 10.77L22.31 12.74C21.62 12.9 20.94 13.12 20.28 13.39L18.91 11.94C18.61 11.62 18.1 11.57 17.74 11.83L14.87 13.89C14.51 14.16 14.4 14.64 14.61 15.03L15.59 16.77C15.11 17.31 14.69 17.88 14.32 18.48L12.36 18.1C11.92 18.01 11.49 18.27 11.35 18.69L10.25 22.03C10.11 22.46 10.32 22.91 10.72 23.1L12.54 23.94C12.5 24.32 12.49 24.66 12.49 25C12.49 25.33 12.5 25.68 12.54 26.05L10.72 26.89C10.32 27.08 10.11 27.54 10.25 27.96L11.35 31.3C11.49 31.73 11.92 31.98 12.36 31.9L14.33 31.52C14.69 32.12 15.12 32.69 15.59 33.23L14.61 34.96C14.4 35.35 14.51 35.84 14.87 36.1L17.74 38.17C18.1 38.43 18.61 38.38 18.91 38.05L20.28 36.6C20.94 36.87 21.62 37.09 22.31 37.25L22.55 39.22C22.61 39.67 22.99 40 23.43 40L26.99 40C27.43 40 27.81 39.67 27.87 39.22L28.11 37.25C28.8 37.09 29.48 36.87 30.14 36.6L31.51 38.05C31.81 38.38 32.32 38.43 32.68 38.16L35.55 36.1C35.91 35.84 36.02 35.35 35.8 34.96L34.83 33.23C35.3 32.69 35.73 32.12 36.09 31.52L38.05 31.9C38.5 31.98 38.93 31.73 39.07 31.3L40.17 27.96C40.3 27.54 40.1 27.08 39.7 26.89ZM37.62 30.02L35.82 29.67C35.82 29.67 35.81 29.67 35.81 29.67L35.8 29.67C35.37 29.59 34.95 29.83 34.8 30.22C34.35 31.04 33.78 31.8 33.11 32.49C32.85 32.76 32.78 33.16 32.95 33.49C32.96 33.5 32.96 33.52 32.97 33.53L33.87 35.13L32.27 36.29L31.01 34.94C30.74 34.66 30.32 34.58 29.97 34.75C29.07 35.18 28.12 35.48 27.15 35.66C26.77 35.72 26.47 36.03 26.42 36.41L26.2 38.24L24.22 38.24L24 36.41C23.95 36.03 23.65 35.72 23.27 35.66C22.3 35.48 21.35 35.18 20.45 34.75C20.1 34.58 19.69 34.66 19.42 34.94C19.42 34.94 19.42 34.94 19.41 34.94L18.15 36.29L16.55 35.13L17.44 33.54C17.64 33.21 17.59 32.78 17.31 32.49C16.64 31.8 16.07 31.04 15.62 30.22C15.47 29.83 15.05 29.59 14.62 29.67L14.61 29.67C14.61 29.67 14.6 29.67 14.6 29.67L12.8 30.02L12.18 28.16L13.87 27.38C13.87 27.38 13.88 27.38 13.88 27.37C14.23 27.21 14.43 26.84 14.38 26.47C14.3 25.9 14.26 25.44 14.26 25C14.26 24.56 14.3 24.09 14.38 23.53C14.43 23.15 14.23 22.78 13.88 22.62C13.88 22.62 13.87 22.61 13.87 22.61L12.18 21.84L12.8 19.97L14.6 20.32C14.6 20.32 14.61 20.32 14.61 20.32L14.62 20.33C15.05 20.41 15.47 20.16 15.62 19.77C16.07 18.96 16.64 18.2 17.31 17.5C17.57 17.23 17.63 16.83 17.47 16.5C17.46 16.49 17.46 16.48 17.45 16.47L16.55 14.86L18.15 13.71L19.41 15.05C19.68 15.34 20.1 15.42 20.45 15.25C21.35 14.82 22.3 14.51 23.27 14.34C23.65 14.27 23.95 13.96 24 13.58L24.22 11.75L26.2 11.75L26.42 13.58C26.47 13.96 26.77 14.27 27.15 14.34C28.12 14.51 29.07 14.82 29.97 15.25C30.32 15.41 30.73 15.34 31 15.06C31 15.06 31 15.05 31.01 15.05L32.27 13.71L33.87 14.86L32.97 16.47C32.96 16.48 32.96 16.49 32.95 16.5C32.78 16.83 32.85 17.23 33.11 17.5C33.78 18.2 34.35 18.96 34.8 19.77C34.95 20.16 35.37 20.41 35.8 20.33L35.81 20.32C35.81 20.32 35.82 20.32 35.82 20.32L37.62 19.97L38.24 21.84L36.55 22.61C36.2 22.77 35.99 23.15 36.04 23.53C36.12 24.09 36.16 24.56 36.16 25C36.16 25.44 36.12 25.9 36.04 26.47C35.99 26.84 36.19 27.21 36.54 27.38C36.54 27.38 36.55 27.38 36.55 27.38L38.24 28.16L37.62 30.02Z" fill="#1C1A17" fill-opacity="1.000000" fill-rule="nonzero"/>
		<path id="Vector" d="M25.21 16.5C20.48 16.5 16.63 20.31 16.63 25C16.63 29.68 20.48 33.49 25.21 33.49C29.94 33.49 33.79 29.68 33.79 25C33.79 20.31 29.94 16.5 25.21 16.5ZM26.6 27.91C26.29 28.05 26.1 28.36 26.1 28.7L26.1 31.68C25.81 31.72 25.51 31.74 25.21 31.74C24.91 31.74 24.61 31.72 24.32 31.68L24.32 28.7C24.32 28.36 24.12 28.05 23.81 27.91C22.68 27.37 21.95 26.23 21.95 25C21.95 24.18 22.27 23.4 22.82 22.82L23.15 24.57C23.23 24.99 23.6 25.29 24.02 25.29L26.39 25.29C26.82 25.29 27.19 24.99 27.26 24.57L27.6 22.82C28.14 23.4 28.46 24.18 28.46 25C28.46 26.23 27.73 27.37 26.6 27.91ZM27.87 31.2L27.87 29.22C29.33 28.31 30.24 26.71 30.24 25C30.24 23.09 29.11 21.32 27.37 20.5C27.12 20.38 26.83 20.39 26.58 20.51C26.34 20.64 26.16 20.87 26.11 21.13L25.66 23.53L24.76 23.53L24.31 21.13C24.25 20.87 24.08 20.64 23.84 20.51C23.59 20.39 23.3 20.38 23.05 20.5C21.31 21.32 20.18 23.09 20.18 25C20.18 26.71 21.09 28.31 22.55 29.22L22.55 31.2C20.11 30.17 18.4 27.78 18.4 25C18.4 21.28 21.46 18.26 25.21 18.26C28.96 18.26 32.01 21.28 32.01 25C32.01 27.78 30.3 30.17 27.87 31.2Z" fill="#1C1A17" fill-opacity="1.000000" fill-rule="nonzero"/>
	</g>
</svg>
