<svg width="25.000000" height="25.000000" viewBox="0 0 25 25" fill="none" xmlns="http://www.w3.org/2000/svg" xmlns:xlink="http://www.w3.org/1999/xlink">
	<desc>
			Created with Pixso.
	</desc>
	<defs/>
	<rect id="Frame 1000005939" rx="0.000000" width="24.512548" height="24.512548" transform="translate(0.243726 0.243726)" fill="#F7A711" fill-opacity="1.000000"/>
	<path id="Vector" d="M12.75 10.67L16.83 10.67C16.85 10.67 16.96 10.77 16.98 10.8C17.11 10.98 17 11.13 16.91 11.3C15.52 14.05 13.75 16.7 12.33 19.45C12.19 19.83 11.74 19.92 11.65 19.47L12.18 14.32L8.16 14.32C8.16 14.32 8.03 14.24 8.02 14.23C7.94 14.15 7.93 13.97 7.97 13.87L12.89 5.31C13.14 5.1 13.45 5.29 13.41 5.61L12.75 10.67Z" fill="#1C1A17" fill-opacity="1.000000" fill-rule="nonzero"/>
</svg>
