<svg width="25.000000" height="25.000000" viewBox="0 0 25 25" fill="none" xmlns="http://www.w3.org/2000/svg" xmlns:xlink="http://www.w3.org/1999/xlink">
	<desc>
			Created with Pixso.
	</desc>
	<defs/>
	<rect id="Frame 1000005940" rx="0.000000" width="24.512548" height="24.512548" transform="translate(0.243726 0.243726)" fill="#F7A711" fill-opacity="1.000000"/>
	<path id="Vector" d="M16.05 14.67C16.4 14.63 16.69 14.94 16.63 15.29C16.42 16.66 15.67 17.95 14.44 18.81C13.52 19.46 12.46 19.78 11.39 19.78C10.32 19.78 9.25 19.46 8.33 18.81C5.86 17.08 5.34 13.63 7.18 11.23L10.98 6.31C11.18 6.04 11.59 6.04 11.8 6.31L12.61 7.36L12.22 7.86C11.51 8.79 11.21 9.93 11.39 11.09C11.56 12.25 12.19 13.25 13.14 13.92C13.86 14.43 14.71 14.7 15.58 14.7C15.74 14.7 15.9 14.69 16.05 14.67L16.05 14.67Z" fill="#1C1A17" fill-opacity="1.000000" fill-rule="nonzero"/>
	<path id="Vector" d="M18.91 10.45C18.91 11.49 18.42 12.53 17.5 13.17C16.92 13.58 16.25 13.78 15.58 13.78C14.91 13.78 14.24 13.58 13.67 13.17C12.12 12.08 11.79 9.92 12.95 8.42L15.33 5.34C15.46 5.17 15.71 5.17 15.84 5.34L18.22 8.42C18.69 9.03 18.91 9.74 18.91 10.45L18.91 10.45Z" fill="#1C1A17" fill-opacity="1.000000" fill-rule="nonzero"/>
</svg>
