<svg width="25.000000" height="25.000000" viewBox="0 0 25 25" fill="none" xmlns="http://www.w3.org/2000/svg" xmlns:xlink="http://www.w3.org/1999/xlink">
	<desc>
			Created with Pixso.
	</desc>
	<defs/>
	<rect id="Frame 1000005937" rx="0.000000" width="24.512548" height="24.512548" transform="translate(0.243726 0.243726)" fill="#F7A711" fill-opacity="1.000000"/>
	<path id="Vector" d="M14.35 19.15C15.51 17 14.41 14.19 12.61 12.54C12.34 12.29 11.91 12.48 11.91 12.84C11.91 13.03 11.9 13.21 11.86 13.41C11.69 14.41 10.97 14.99 10.55 15.85C10.01 16.95 10.05 18.14 10.59 19.14C10.78 19.5 10.41 19.88 10.04 19.72C7.3 18.46 6 15.14 7.15 12.23C7.89 10.36 9.75 8.99 10.28 7.04C10.4 6.57 10.45 6.12 10.43 5.65C10.42 5.33 10.76 5.12 11.04 5.27C12.76 6.14 14.29 7.36 15.6 8.78C17.86 11.24 19.29 14.45 17.33 17.58C16.73 18.54 15.9 19.28 14.89 19.73C14.52 19.9 14.16 19.51 14.35 19.15L14.35 19.15Z" fill="#1C1A17" fill-opacity="1.000000" fill-rule="nonzero"/>
</svg>
