<svg width="34.000000" height="34.000000" viewBox="0 0 34 34" fill="none" xmlns="http://www.w3.org/2000/svg" xmlns:xlink="http://www.w3.org/1999/xlink">
	<desc>
			Created with Pixso.
	</desc>
	<defs/>
	<path id="Vector" d="M0 16.32C0 8.62 0 4.78 2.38 2.38C4.78 0 8.62 0 16.32 0L17.67 0C25.37 0 29.22 0 31.61 2.38C34 4.78 34 8.62 34 16.32L34 17.67C34 25.37 34 29.21 31.61 31.61C29.22 34 25.37 34 17.67 34L16.32 34C8.62 34 4.78 34 2.38 31.61C0 29.21 0 25.37 0 17.67L0 16.32Z" fill="#000000" fill-opacity="1.000000" fill-rule="nonzero"/>
	<path id="Vector" d="M18.09 24.49C10.34 24.49 5.92 19.18 5.73 10.34L9.61 10.34C9.74 16.83 12.6 19.57 14.87 20.14L14.87 10.34L18.53 10.34L18.53 15.93C20.76 15.69 23.11 13.14 23.91 10.34L27.56 10.34C26.95 13.79 24.4 16.34 22.59 17.39C24.4 18.24 27.31 20.47 28.41 24.49L24.39 24.49C23.53 21.8 21.37 19.71 18.53 19.43L18.53 24.49L18.09 24.49Z" fill="#F7A711" fill-opacity="1.000000" fill-rule="nonzero"/>
</svg>
